<svg width="158" height="40" viewBox="0 0 158 40" fill="none" xmlns="http://www.w3.org/2000/svg">
<path d="M16.416 19.032H12V39H3.792V19.032H0.816V12.216H3.792V11.448C3.792 8.152 4.736 5.656 6.624 3.96C8.512 2.232 11.28 1.368 14.928 1.368C15.536 1.368 15.984 1.384 16.272 1.416V8.376C14.704 8.28 13.6 8.504 12.96 9.048C12.32 9.592 12 10.568 12 11.976V12.216H16.416V19.032ZM22.0009 9.432C20.5609 9.432 19.3769 9.016 18.4489 8.184C17.5529 7.32 17.1049 6.264 17.1049 5.016C17.1049 3.736 17.5529 2.68 18.4489 1.848C19.3769 0.983997 20.5609 0.551997 22.0009 0.551997C23.4089 0.551997 24.5609 0.983997 25.4569 1.848C26.3849 2.68 26.8489 3.736 26.8489 5.016C26.8489 6.264 26.3849 7.32 25.4569 8.184C24.5609 9.016 23.4089 9.432 22.0009 9.432ZM26.0809 12.216V39H17.8729V12.216H26.0809ZM37.8371 16.68C38.7971 15.208 39.9971 14.056 41.4371 13.224C42.8771 12.36 44.4771 11.928 46.2371 11.928V20.616H43.9811C41.9331 20.616 40.3971 21.064 39.3731 21.96C38.3491 22.824 37.8371 24.36 37.8371 26.568V39H29.6291V12.216H37.8371V16.68ZM58.6564 39.384C56.3204 39.384 54.2404 38.984 52.4164 38.184C50.5924 37.384 49.1524 36.296 48.0964 34.92C47.0404 33.512 46.4484 31.944 46.3204 30.216H54.4324C54.5284 31.144 54.9604 31.896 55.7284 32.472C56.4964 33.048 57.4404 33.336 58.5604 33.336C59.5844 33.336 60.3684 33.144 60.9124 32.76C61.4884 32.344 61.7764 31.816 61.7764 31.176C61.7764 30.408 61.3764 29.848 60.5764 29.496C59.7764 29.112 58.4804 28.696 56.6884 28.248C54.7684 27.8 53.1684 27.336 51.8884 26.856C50.6084 26.344 49.5044 25.56 48.5764 24.504C47.6484 23.416 47.1844 21.96 47.1844 20.136C47.1844 18.6 47.6004 17.208 48.4324 15.96C49.2964 14.68 50.5444 13.672 52.1764 12.936C53.8404 12.2 55.8084 11.832 58.0804 11.832C61.4404 11.832 64.0804 12.664 66.0004 14.328C67.9524 15.992 69.0724 18.2 69.3604 20.952H61.7764C61.6484 20.024 61.2324 19.288 60.5284 18.744C59.8564 18.2 58.9604 17.928 57.8404 17.928C56.8804 17.928 56.1444 18.12 55.6324 18.504C55.1204 18.856 54.8644 19.352 54.8644 19.992C54.8644 20.76 55.2644 21.336 56.0644 21.72C56.8964 22.104 58.1764 22.488 59.9044 22.872C61.8884 23.384 63.5044 23.896 64.7524 24.408C66.0004 24.888 67.0884 25.688 68.0164 26.808C68.9764 27.896 69.4724 29.368 69.5044 31.224C69.5044 32.792 69.0564 34.2 68.1604 35.448C67.2964 36.664 66.0324 37.624 64.3684 38.328C62.7364 39.032 60.8324 39.384 58.6564 39.384ZM87.054 32.04V39H82.878C79.902 39 77.582 38.28 75.918 36.84C74.254 35.368 73.422 32.984 73.422 29.688V19.032H70.158V12.216H73.422V5.688H81.63V12.216H87.006V19.032H81.63V29.784C81.63 30.584 81.822 31.16 82.206 31.512C82.59 31.864 83.23 32.04 84.126 32.04H87.054ZM110.202 33.048H97.626L95.61 39H87.018L99.21 5.304H108.714L120.906 39H112.218L110.202 33.048ZM108.09 26.712L103.914 14.376L99.786 26.712H108.09ZM147.897 16.152C147.897 18.104 147.449 19.896 146.553 21.528C145.657 23.128 144.281 24.424 142.425 25.416C140.569 26.408 138.265 26.904 135.513 26.904H130.425V39H122.217V5.304H135.513C138.201 5.304 140.473 5.768 142.329 6.696C144.185 7.624 145.577 8.904 146.505 10.536C147.433 12.168 147.897 14.04 147.897 16.152ZM134.889 20.376C136.457 20.376 137.625 20.008 138.393 19.272C139.161 18.536 139.545 17.496 139.545 16.152C139.545 14.808 139.161 13.768 138.393 13.032C137.625 12.296 136.457 11.928 134.889 11.928H130.425V20.376H134.889ZM157.978 5.304V39H149.77V5.304H157.978Z" fill="white"/>
</svg>
